<svg xmlns="http://www.w3.org/2000/svg" width="80" height="38.523" viewBox="0 0 80 38.523">
    <defs>
        <style>
            .cls-1{fill:#fff}.cls-2{fill:#e1001e}.cls-3{fill:none;stroke:#fff;stroke-miterlimit:10;stroke-width:.78px}
        </style>
    </defs>
    <g id="LOGO_TIM">
        <g id="Group_2" data-name="Group 2">
            <g id="Group_1" data-name="Group 1" transform="translate(.593)">
                <path id="Path_3" d="M530.607 185.725c.417 0 .5.056.5 1.527v1.36c0 1.416-.111 1.582-.5 1.582h-4.72V206.1c0 .361-.444.444-2.027.444h-.833c-1.61 0-1.888-.083-1.888-.444v-15.9h-4.72c-.389 0-.5-.111-.5-1.582v-1.36c0-1.527.083-1.527.5-1.527zm8.468.444c0-.305-.444-.444-1.971-.444h-.889c-1.61 0-1.888.139-1.888.444V206.1c0 .361.278.444 1.888.444h.888c1.527 0 1.971-.083 1.971-.444zm23.045-.444h-1.388c-1.777 0-1.888.194-2.027.5l-2.749 6.608c-.916 2.193-1.86 4.554-2.221 5.775a50.549 50.549 0 0 0-2.221-5.886l-2.749-6.5c-.167-.389-.861-.5-2.36-.5h-1.555c-1.527 0-1.833.139-1.833.444V206.1c0 .361.305.444 1.888.444h.861c1.555 0 2-.083 2-.444v-11.823h.111a7.428 7.428 0 0 0 .361 1.055l3.165 7.413c.139.333.306.472 1.777.472h.944c1.5 0 1.61-.111 1.749-.472l2.887-7.136c.278-.666.472-1.333.472-1.333h.111V206.1c0 .361.306.444 1.944.444h.833c1.527 0 1.971-.083 1.971-.444v-19.931c0-.305-.444-.444-1.971-.444z" class="cls-1" data-name="Path 3" transform="translate(-485.433 -185.725)"/>
                <path id="Path_4" d="M395.579 190.193h-22.525a1.2 1.2 0 0 1-1.2-1.2v-2.058a1.2 1.2 0 0 1 1.2-1.2h22.525a1.2 1.2 0 0 1 1.2 1.2V189a1.2 1.2 0 0 1-1.2 1.2zm-13.754 3.729h-8.77a1.2 1.2 0 0 0-1.2 1.2v2.058a1.2 1.2 0 0 0 1.2 1.2h8.77zm14.605.355a1.194 1.194 0 0 0-.851-.355h-8.77v4.453h8.77a1.2 1.2 0 0 0 1.2-1.2v-2.055a1.193 1.193 0 0 0-.349-.842zm0 8.182a1.194 1.194 0 0 0-.851-.355h-8.77v4.453h8.77a1.2 1.2 0 0 0 1.2-1.2V203.3a1.193 1.193 0 0 0-.349-.84zm-14.605-.355h-8.77a1.2 1.2 0 0 0-1.2 1.2v2.058a1.2 1.2 0 0 0 1.2 1.2h8.77z" class="cls-2" data-name="Path 4" transform="translate(-371.857 -185.737)"/>
            </g>
            <path id="Line_1" d="M0 0h80" class="cls-3" data-name="Line 1" transform="translate(0 25.69)"/>
        </g>
        <g id="Group_3" data-name="Group 3" transform="translate(.171 30.231)">
            <path id="Path_5" d="M369.862 332.794c0-2.488 1.344-4.213 3.8-4.213a4.344 4.344 0 0 1 2.353.627c.068.045.056.1-.022.27l-.056.123c-.078.169-.112.2-.2.157a4.407 4.407 0 0 0-2.073-.516c-1.882 0-2.981 1.289-2.981 3.5 0 2.263 1.087 3.485 3.07 3.485a5.609 5.609 0 0 0 1.759-.3V333.2h-2.028c-.078 0-.1-.056-.1-.292v-.045c0-.246.022-.3.1-.3h2.779v3.777a6.757 6.757 0 0 1-2.566.538c-2.58-.005-3.835-1.678-3.835-4.084z" class="cls-1" data-name="Path 5" transform="translate(-369.862 -328.581)"/>
            <path id="Path_6" d="M421.033 337.178h-.1c-.325 0-.4-.011-.471-.123l-1.356-2.286c-.515-.885-.7-1.009-1.669-1.009h-.637v3.317c0 .09-.078.1-.359.1h-.1c-.269 0-.325-.023-.325-.1v-7.968h1.972c2.006 0 3.216.572 3.216 2.208a2.355 2.355 0 0 1-2.04 2.365 3.181 3.181 0 0 1 .728.941l1.457 2.409c.066.101-.049.146-.316.146zm-2.9-4.023c1.423 0 2.241-.538 2.241-1.793 0-1.222-.784-1.637-2.331-1.637H416.8v3.43z" class="cls-1" data-name="Path 6" transform="translate(-406.247 -328.997)"/>
            <path id="Path_7" d="M455.337 334.2v-4.987c0-.079.045-.1.314-.1h.1c.28 0 .359.012.359.1v4.887c0 1.681.706 2.544 2.409 2.544s2.387-.886 2.387-2.544v-4.885c0-.079.056-.1.325-.1h.078c.291 0 .37.012.37.1v4.975c0 2.118-1.12 3.1-3.16 3.1-2.185-.001-3.182-1.02-3.182-3.09z" class="cls-1" data-name="Path 7" transform="translate(-437.249 -328.997)"/>
            <path id="Path_8" d="M501.753 337.077v-7.968h1.826c1.972 0 3.306.594 3.306 2.387 0 1.669-1.154 2.555-2.958 2.555a12.423 12.423 0 0 1-1.39-.1v3.127c0 .09-.078.1-.358.1h-.1c-.27 0-.326-.023-.326-.101zm4.326-5.525c0-1.434-1.02-1.815-2.533-1.815h-1.009v3.6a9.6 9.6 0 0 0 1.244.09c1.513-.003 2.298-.62 2.298-1.875z" class="cls-1" data-name="Path 8" transform="translate(-473.843 -328.997)"/>
            <path id="Path_9" d="M539.965 337.077v-7.968h1.827c1.972 0 3.306.594 3.306 2.387 0 1.669-1.154 2.555-2.958 2.555a12.425 12.425 0 0 1-1.39-.1v3.127c0 .09-.078.1-.359.1h-.1c-.27 0-.326-.023-.326-.101zm4.326-5.525c0-1.434-1.02-1.815-2.533-1.815h-1.009v3.6a9.6 9.6 0 0 0 1.244.09c1.513-.003 2.298-.62 2.298-1.875z" class="cls-1" data-name="Path 9" transform="translate(-503.969 -328.997)"/>
            <path id="Path_10" d="M576.378 332.84c0-2.611 1.457-4.259 3.776-4.259 2.219 0 3.541 1.491 3.541 4.023 0 2.612-1.457 4.27-3.777 4.27-2.207-.001-3.54-1.502-3.54-4.034zm6.488-.191c0-2.174-1-3.407-2.757-3.407-1.816 0-2.914 1.323-2.914 3.552 0 2.185 1.009 3.418 2.757 3.418 1.816 0 2.914-1.344 2.914-3.563z" class="cls-1" data-name="Path 10" transform="translate(-532.676 -328.581)"/>
            <path id="Path_11" d="M646.563 337.077v-7.329h-2.5c-.079 0-.1-.078-.1-.3v-.048c0-.213.022-.291.1-.291h5.782c.079 0 .1.079.1.3v.045c0 .213-.022.291-.1.291h-2.5v7.329c0 .09-.078.1-.37.1h-.09c-.255.004-.322-.019-.322-.097z" class="cls-1" data-name="Path 11" transform="translate(-585.959 -328.997)"/>
            <path id="Path_12" d="M685.882 337.077v-7.866c0-.079.056-.1.325-.1h.1c.28 0 .358.012.358.1v7.866c0 .09-.078.1-.358.1h-.1c-.269.001-.325-.022-.325-.1z" class="cls-1" data-name="Path 12" transform="translate(-619.007 -328.997)"/>
            <path id="Path_13" d="M706.575 337.077v-7.856c0-.09.034-.112.437-.112h.034c.325 0 .381.023.426.112l1.838 3.732c.392.807.684 1.446.941 2.029.28-.662.527-1.245.9-2.029l1.759-3.732c.045-.09.09-.112.459-.112h.067c.358 0 .4.023.4.112v7.856c0 .09-.079.1-.359.1h-.067c-.269 0-.314-.023-.314-.1v-4.068c0-.683 0-2.051.023-2.712-.3.717-.628 1.479-.953 2.141l-1.591 3.238c-.033.078-.067.1-.336.1h-.033c-.269 0-.314-.023-.347-.1l-1.614-3.238c-.482-.964-.706-1.513-.964-2.13.022.729.034 1.95.034 2.723v4.045c0 .09-.078.1-.359.1h-.067c-.269.002-.314-.021-.314-.099z" class="cls-1" data-name="Path 13" transform="translate(-635.322 -328.997)"/>
        </g>
    </g>
</svg>
